<?xml version="1.0" encoding="utf-8"?>
<!-- Generator: Adobe Illustrator 18.0.0, SVG Export Plug-In . SVG Version: 6.00 Build 0)  -->
<!DOCTYPE svg PUBLIC "-//W3C//DTD SVG 1.1//EN" "http://www.w3.org/Graphics/SVG/1.1/DTD/svg11.dtd">
<svg version="1.1" id="Layer_1" xmlns="http://www.w3.org/2000/svg" xmlns:xlink="http://www.w3.org/1999/xlink" x="0px" y="0px"
	 viewBox="0 0 90 90" enable-background="new 0 0 90 90" xml:space="preserve">
<path fill="#424242" d="M88.9,24.7c0.4-0.2,0.6-0.6,0.5-1.1c-0.1-0.4-0.5-0.8-0.9-0.8H67.3V1.6c0-0.5-0.3-0.8-0.8-0.9
	c-0.4-0.1-0.9,0.1-1.1,0.5l-9.6,21.7h-21L25.2,1.2c-0.2-0.4-0.6-0.6-1.1-0.5c-0.4,0.1-0.8,0.5-0.8,0.9v21.3H2.1
	c-0.5,0-0.8,0.3-0.9,0.8c-0.1,0.4,0.1,0.9,0.5,1.1l21.6,9.6v21L1.7,64.9c-0.4,0.2-0.6,0.6-0.5,1.1c0.1,0.4,0.5,0.8,0.9,0.8h21.2
	v21.3c0,0.5,0.3,0.8,0.8,0.9c0.4,0.1,0.9-0.1,1.1-0.5l9.7-21.7h21l9.7,21.7c0.2,0.3,0.5,0.6,0.9,0.6c0.1,0,0.1,0,0.2,0
	c0.4-0.1,0.8-0.5,0.8-0.9V66.8h21.3c0.5,0,0.8-0.3,0.9-0.8c0.1-0.4-0.1-0.9-0.5-1.1l-21.7-9.6v-21L88.9,24.7z M67.3,24.8h16.8
	l-16.8,7.5V24.8z M23.3,64.9H6.6l16.7-7.4V64.9z M23.3,32.2L6.6,24.8h16.7V32.2z M25.2,6.1l7.5,16.8h-7.5V6.1z M25.2,24.8h8.3
	l6.7,15l-15-6.7V24.8z M25.2,83.6V66.8h7.5L25.2,83.6z M33.6,64.9h-8.3v-8.3l15-6.7L33.6,64.9z M65.4,83.6l-7.5-16.8h7.5V83.6z
	 M65.4,64.9H57l-6.7-15l15,6.7V64.9z M65.4,54.5l-16.5-7.3c-0.4-0.2-0.8-0.1-1.1,0.2c-0.3,0.3-0.4,0.7-0.2,1.1L55,64.9H35.7L43,48.4
	c0.2-0.4,0.1-0.8-0.2-1.1c-0.3-0.3-0.7-0.4-1.1-0.2l-16.5,7.3V35.2l16.5,7.4c0.4,0.2,0.8,0.1,1.1-0.2c0.3-0.3,0.4-0.7,0.2-1.1
	l-7.3-16.5H55l-7.3,16.5c-0.2,0.4-0.1,0.8,0.2,1.1c0.3,0.3,0.7,0.4,1.1,0.2l16.5-7.3V54.5z M65.4,33.1l-15,6.7l6.7-15h8.3V33.1z
	 M65.4,22.8h-7.5l7.5-16.8V22.8z M84.1,64.9H67.3v-7.5L84.1,64.9z"/>
</svg>
